<svg width="111" height="32" viewBox="0 0 111 32" fill="none" xmlns="http://www.w3.org/2000/svg">
<path d="M106.889 0.64124C108.792 0.64124 110.341 2.14824 110.341 4.00024V28.0002C110.341 29.8522 108.792 31.3592 106.889 31.3592H4.11111C2.20767 31.3592 0.658805 29.8522 0.658805 28.0002V4.00024C0.658805 2.14824 2.20767 0.64124 4.11111 0.64124H106.889ZM106.889 0.000241108H4.11111C1.85103 0.000241108 0 1.80124 0 4.00024V28.0002C0 30.1992 1.85103 32.0002 4.11111 32.0002H106.889C109.149 32.0002 111 30.1992 111 28.0002V4.00024C111 1.80124 109.149 0.000241108 106.889 0.000241108Z" fill="#878BB1"/>
<path d="M24.7245 15.8272C24.7007 13.2488 26.8898 11.9944 26.9899 11.936C25.7501 10.1736 23.8285 9.93283 23.1532 9.91363C21.5393 9.74803 19.9737 10.8552 19.1516 10.8552C18.313 10.8552 17.047 9.92963 15.6824 9.95683C13.9265 9.98323 12.2839 10.9744 11.383 12.5136C9.52367 15.652 10.9103 20.264 12.6917 22.8008C13.5827 24.0432 14.624 25.4304 15.9868 25.3816C17.3202 25.328 17.8182 24.5528 19.4273 24.5528C21.0215 24.5528 21.4892 25.3816 22.8792 25.3504C24.3101 25.328 25.2111 24.1024 26.071 22.8488C27.1007 21.4248 27.5142 20.0224 27.5306 19.9504C27.497 19.9392 24.7516 18.9176 24.7245 15.8272Z" fill="#878BB1"/>
<path d="M22.0989 8.24483C22.816 7.37043 23.3066 6.18083 23.1704 4.97363C22.1325 5.01843 20.8344 5.67363 20.087 6.52883C19.4256 7.28243 18.8348 8.51763 18.9875 9.67923C20.1534 9.76403 21.3505 9.10563 22.0989 8.24483Z" fill="#878BB1"/>
<path d="M44.0231 25.204H42.1598L41.139 22.0768H37.5911L36.6188 25.204H34.8047L38.3198 14.5576H40.4908L44.0231 25.204ZM40.8314 20.7648L39.9083 17.9848C39.8106 17.7008 39.6277 17.032 39.3577 15.9792H39.3249C39.2174 16.432 39.0443 17.1008 38.8063 17.9848L37.8997 20.7648H40.8314Z" fill="#878BB1"/>
<path d="M53.0511 21.2717C53.0511 22.5773 52.6893 23.6093 51.9656 24.3669C51.3174 25.0413 50.5124 25.3781 49.5516 25.3781C48.5145 25.3781 47.7695 25.0149 47.3157 24.2885H47.2829V28.3325H45.5336V20.0549C45.5336 19.2341 45.5114 18.3917 45.4688 17.5277H47.0072L47.1049 18.7445H47.1377C47.7211 17.8277 48.6064 17.3701 49.7945 17.3701C50.7233 17.3701 51.4987 17.7277 52.119 18.4437C52.741 19.1605 53.0511 20.1029 53.0511 21.2717ZM51.269 21.3341C51.269 20.5869 51.0966 19.9709 50.7504 19.4861C50.3721 18.9805 49.8642 18.7277 49.2275 18.7277C48.7959 18.7277 48.4037 18.8685 48.0534 19.1461C47.7022 19.4261 47.4724 19.7917 47.365 20.2445C47.3108 20.4557 47.2837 20.6285 47.2837 20.7645V22.0445C47.2837 22.6029 47.4593 23.0741 47.8105 23.4589C48.1617 23.8437 48.6179 24.0357 49.1791 24.0357C49.838 24.0357 50.3508 23.7877 50.7176 23.2933C51.0852 22.7981 51.269 22.1453 51.269 21.3341Z" fill="#878BB1"/>
<path d="M62.1128 21.2717C62.1128 22.5773 61.7509 23.6093 61.0264 24.3669C60.379 25.0413 59.5741 25.3781 58.6133 25.3781C57.5762 25.3781 56.8311 25.0149 56.3782 24.2885H56.3454V28.3325H54.5961V20.0549C54.5961 19.2341 54.5739 18.3917 54.5312 17.5277H56.0697L56.1674 18.7445H56.2002C56.7827 17.8277 57.6681 17.3701 58.857 17.3701C59.785 17.3701 60.5604 17.7277 61.1823 18.4437C61.8018 19.1605 62.1128 20.1029 62.1128 21.2717ZM60.3306 21.3341C60.3306 20.5869 60.1575 19.9709 59.8112 19.4861C59.433 18.9805 58.9267 18.7277 58.2892 18.7277C57.8568 18.7277 57.4654 18.8685 57.1142 19.1461C56.763 19.4261 56.5341 19.7917 56.4266 20.2445C56.3733 20.4557 56.3454 20.6285 56.3454 20.7645V22.0445C56.3454 22.6029 56.521 23.0741 56.8705 23.4589C57.2217 23.8429 57.6779 24.0357 58.2408 24.0357C58.8997 24.0357 59.4125 23.7877 59.7793 23.2933C60.1468 22.7981 60.3306 22.1453 60.3306 21.3341Z" fill="#878BB1"/>
<path d="M72.2429 22.2182C72.2429 23.1238 71.9204 23.8606 71.2731 24.4294C70.5617 25.051 69.5713 25.3614 68.2987 25.3614C67.1237 25.3614 66.1818 25.1406 65.4688 24.6982L65.8741 23.2766C66.6421 23.7294 67.4848 23.9566 68.4029 23.9566C69.0618 23.9566 69.5746 23.811 69.943 23.5214C70.3098 23.2318 70.4928 22.843 70.4928 22.3582C70.4928 21.9262 70.3418 21.5622 70.039 21.267C69.7379 20.9718 69.2349 20.6974 68.5325 20.4438C66.6208 19.7486 65.6657 18.7302 65.6657 17.391C65.6657 16.5158 66.0004 15.7982 66.6708 15.2398C67.3387 14.6806 68.2298 14.4014 69.344 14.4014C70.3377 14.4014 71.1631 14.5702 71.822 14.907L71.3846 16.2974C70.7693 15.971 70.0735 15.8078 69.2948 15.8078C68.6794 15.8078 68.1986 15.9558 67.854 16.2502C67.5627 16.5134 67.4166 16.8342 67.4166 17.2142C67.4166 17.635 67.5832 17.983 67.918 18.2566C68.2093 18.5094 68.7385 18.783 69.5065 19.0782C70.446 19.447 71.136 19.8782 71.5799 20.3726C72.0222 20.8654 72.2429 21.4822 72.2429 22.2182Z" fill="#878BB1"/>
<path d="M78.0373 18.8071H76.1091V22.5343C76.1091 23.4823 76.4488 23.9559 77.1298 23.9559C77.4424 23.9559 77.7017 23.9295 77.9068 23.8767L77.9552 25.1719C77.6106 25.2975 77.1569 25.3607 76.5948 25.3607C75.9039 25.3607 75.364 25.1551 74.9743 24.7447C74.5862 24.3335 74.3909 23.6439 74.3909 22.6751V18.8055H73.2422V17.5255H74.3909V16.1199L76.1091 15.6143V17.5255H78.0373V18.8071Z" fill="#878BB1"/>
<path d="M86.7276 21.3021C86.7276 22.4821 86.3814 23.4509 85.6905 24.2085C84.966 24.9885 84.0043 25.3773 82.8056 25.3773C81.6503 25.3773 80.7305 25.0037 80.0445 24.2565C79.3586 23.5093 79.0156 22.5661 79.0156 21.4293C79.0156 20.2397 79.3684 19.2653 80.0765 18.5077C80.783 17.7493 81.7364 17.3701 82.9352 17.3701C84.0905 17.3701 85.0201 17.7437 85.7217 18.4917C86.3929 19.2173 86.7276 20.1541 86.7276 21.3021ZM84.9126 21.3573C84.9126 20.6493 84.7576 20.0421 84.4433 19.5357C84.0765 18.9229 83.5522 18.6173 82.8729 18.6173C82.1697 18.6173 81.6355 18.9237 81.2688 19.5357C80.9545 20.0429 80.7994 20.6597 80.7994 21.3893C80.7994 22.0973 80.9545 22.7045 81.2688 23.2101C81.647 23.8229 82.1754 24.1285 82.8573 24.1285C83.5252 24.1285 84.0495 23.8165 84.4277 23.1941C84.7502 22.6781 84.9126 22.0645 84.9126 21.3573Z" fill="#878BB1"/>
<path d="M92.4157 19.0277C92.2425 18.9965 92.0579 18.9805 91.8643 18.9805C91.2489 18.9805 90.773 19.2069 90.4382 19.6605C90.1469 20.0605 90.0009 20.5661 90.0009 21.1765V25.2045H88.2524L88.2688 19.9453C88.2688 19.0605 88.2466 18.2549 88.2031 17.5285H89.7268L89.7908 18.9973H89.8392C90.0239 18.4925 90.3151 18.0861 90.7139 17.7813C91.1036 17.5069 91.5246 17.3701 91.9783 17.3701C92.14 17.3701 92.286 17.3813 92.4157 17.4013V19.0277Z" fill="#878BB1"/>
<path d="M100.24 21.0027C100.24 21.3083 100.219 21.5659 100.176 21.7763H94.9275C94.948 22.5347 95.2016 23.1147 95.689 23.5147C96.1312 23.8723 96.7031 24.0515 97.4055 24.0515C98.1825 24.0515 98.8914 23.9307 99.529 23.6883L99.803 24.8723C99.058 25.1891 98.1784 25.3467 97.1634 25.3467C95.9425 25.3467 94.9841 24.9963 94.2867 24.2963C93.5909 23.5963 93.2422 22.6563 93.2422 21.4771C93.2422 20.3195 93.5663 19.3555 94.2153 18.5867C94.8947 17.7659 95.8129 17.3555 96.9681 17.3555C98.1029 17.3555 98.962 17.7659 99.5454 18.5867C100.007 19.2387 100.24 20.0451 100.24 21.0027ZM98.5714 20.5603C98.5829 20.0547 98.4688 19.6179 98.2317 19.2491C97.929 18.7747 97.4637 18.5379 96.8377 18.5379C96.2658 18.5379 95.8005 18.7691 95.4453 19.2331C95.154 19.6019 94.9809 20.0443 94.9275 20.5595H98.5714V20.5603Z" fill="#878BB1"/>
<path d="M40.2532 8.01087C40.2532 8.95247 39.9636 9.66127 39.3851 10.1373C38.8493 10.5765 38.0879 10.7965 37.1016 10.7965C36.6126 10.7965 36.1941 10.7757 35.8438 10.7341V5.58927C36.3008 5.51727 36.7931 5.48047 37.3248 5.48047C38.2643 5.48047 38.9724 5.67967 39.4499 6.07807C39.9849 6.52847 40.2532 7.17247 40.2532 8.01087ZM39.3465 8.03407C39.3465 7.42367 39.1808 6.95567 38.8493 6.62927C38.5178 6.30367 38.0337 6.14047 37.3962 6.14047C37.1254 6.14047 36.8948 6.15807 36.7036 6.19487V10.1061C36.8095 10.1221 37.0031 10.1293 37.2846 10.1293C37.9426 10.1293 38.4505 9.95087 38.8083 9.59407C39.166 9.23727 39.3465 8.71727 39.3465 8.03407Z" fill="#878BB1"/>
<path d="M45.0617 8.83159C45.0617 9.41159 44.8919 9.88679 44.5522 10.2596C44.1961 10.6428 43.7243 10.834 43.1352 10.834C42.5674 10.834 42.1153 10.6508 41.7781 10.2828C41.4416 9.91559 41.2734 9.45239 41.2734 8.89399C41.2734 8.30999 41.4466 7.83079 41.7945 7.45879C42.1424 7.08679 42.6101 6.90039 43.1992 6.90039C43.767 6.90039 44.2232 7.08359 44.5686 7.45079C44.8968 7.80759 45.0617 8.26839 45.0617 8.83159ZM44.1698 8.85879C44.1698 8.51079 44.0927 8.21239 43.9393 7.96359C43.7588 7.66279 43.502 7.51239 43.168 7.51239C42.8226 7.51239 42.56 7.66279 42.3795 7.96359C42.2252 8.21239 42.1489 8.51559 42.1489 8.87399C42.1489 9.22199 42.2261 9.52039 42.3795 9.76919C42.5657 10.07 42.825 10.2204 43.1598 10.2204C43.488 10.2204 43.7456 10.0676 43.9311 9.76119C44.0903 9.50759 44.1698 9.20679 44.1698 8.85879Z" fill="#878BB1"/>
<path d="M51.5103 6.97754L50.3001 10.7487H49.5124L49.0111 9.11114C48.8839 8.70234 48.7805 8.29594 48.7001 7.89274H48.6845C48.6098 8.30714 48.5065 8.71274 48.3735 9.11114L47.841 10.7487H47.0443L45.9062 6.97754H46.7899L47.2273 8.77034C47.3331 9.19434 47.4201 9.59834 47.4898 9.98074H47.5054C47.5694 9.66554 47.6753 9.26394 47.8246 8.77834L48.3735 6.97834H49.0742L49.6002 8.73994C49.7274 9.16954 49.8308 9.58314 49.9103 9.98154H49.9341C49.9924 9.59354 50.0802 9.17994 50.1967 8.73994L50.666 6.97834H51.5103V6.97754Z" fill="#878BB1"/>
<path d="M55.9607 10.7488H55.1008V8.58884C55.1008 7.92324 54.8415 7.59044 54.3213 7.59044C54.0661 7.59044 53.8602 7.68164 53.7002 7.86484C53.5418 8.04804 53.4614 8.26404 53.4614 8.51124V10.748H52.6015V8.05524C52.6015 7.72404 52.5908 7.36484 52.5703 6.97604H53.326L53.3662 7.56564H53.39C53.4901 7.38244 53.6394 7.23124 53.8355 7.11044C54.0686 6.96964 54.3295 6.89844 54.615 6.89844C54.976 6.89844 55.2764 7.01204 55.5151 7.24004C55.8121 7.51924 55.9607 7.93604 55.9607 8.48964V10.7488Z" fill="#878BB1"/>
<path d="M58.3356 10.7487H57.4766V5.24707H58.3356V10.7487Z" fill="#878BB1"/>
<path d="M63.4055 8.83159C63.4055 9.41159 63.2357 9.88679 62.896 10.2596C62.5399 10.6428 62.0672 10.834 61.4789 10.834C60.9103 10.834 60.4582 10.6508 60.1218 10.2828C59.7854 9.91559 59.6172 9.45239 59.6172 8.89399C59.6172 8.30999 59.7903 7.83079 60.1382 7.45879C60.4861 7.08679 60.9538 6.90039 61.5421 6.90039C62.1107 6.90039 62.5661 7.08359 62.9124 7.45079C63.2406 7.80759 63.4055 8.26839 63.4055 8.83159ZM62.5128 8.85879C62.5128 8.51079 62.4357 8.21239 62.2822 7.96359C62.1025 7.66279 61.8449 7.51239 61.5118 7.51239C61.1655 7.51239 60.9029 7.66279 60.7232 7.96359C60.569 8.21239 60.4927 8.51559 60.4927 8.87399C60.4927 9.22199 60.5698 9.52039 60.7232 9.76919C60.9095 10.07 61.1688 10.2204 61.5035 10.2204C61.8318 10.2204 62.0886 10.0676 62.274 9.76119C62.434 9.50759 62.5128 9.20679 62.5128 8.85879Z" fill="#878BB1"/>
<path d="M67.5582 10.7484H66.7861L66.7221 10.314H66.6983C66.4341 10.6604 66.0575 10.834 65.5685 10.834C65.2033 10.834 64.9079 10.7196 64.6856 10.4924C64.4837 10.286 64.3828 10.0292 64.3828 9.72439C64.3828 9.26359 64.5797 8.91239 64.976 8.66919C65.3715 8.42599 65.9278 8.30679 66.6441 8.31239V8.24199C66.6441 7.74519 66.3767 7.49719 65.8409 7.49719C65.4593 7.49719 65.1229 7.59079 64.8325 7.77639L64.6577 7.22599C65.0171 7.00919 65.461 6.90039 65.9845 6.90039C66.9953 6.90039 67.5024 7.42039 67.5024 8.46039V9.84919C67.5024 10.226 67.5213 10.526 67.5582 10.7484ZM66.6655 9.45239V8.87079C65.717 8.85479 65.2427 9.10839 65.2427 9.63079C65.2427 9.82759 65.2969 9.97479 65.4076 10.0732C65.5184 10.1716 65.6595 10.2204 65.8277 10.2204C66.0165 10.2204 66.1929 10.162 66.3537 10.046C66.5153 9.92919 66.6146 9.78119 66.6515 9.59959C66.6606 9.55879 66.6655 9.50919 66.6655 9.45239Z" fill="#878BB1"/>
<path d="M72.4423 10.7487H71.6792L71.639 10.1431H71.6152C71.3715 10.6039 70.9564 10.8343 70.373 10.8343C69.9069 10.8343 69.5188 10.6559 69.2111 10.2991C68.9034 9.94227 68.75 9.47907 68.75 8.91027C68.75 8.29987 68.9166 7.80547 69.2513 7.42787C69.5754 7.07587 69.9726 6.89987 70.4452 6.89987C70.9646 6.89987 71.328 7.07027 71.5348 7.41187H71.5512V5.24707H72.4119V9.73267C72.4119 10.0999 72.4218 10.4383 72.4423 10.7487ZM71.5512 9.15827V8.52947C71.5512 8.42067 71.543 8.33267 71.5274 8.26547C71.479 8.06387 71.3748 7.89427 71.2165 7.75747C71.0565 7.62067 70.8636 7.55187 70.6413 7.55187C70.3205 7.55187 70.0694 7.67587 69.8848 7.92467C69.7018 8.17347 69.6091 8.49107 69.6091 8.87907C69.6091 9.25187 69.6969 9.55427 69.8733 9.78707C70.0595 10.0351 70.3106 10.1591 70.6249 10.1591C70.9071 10.1591 71.1328 10.0559 71.3043 9.84867C71.47 9.65747 71.5512 9.42707 71.5512 9.15827Z" fill="#878BB1"/>
<path d="M79.7961 8.83159C79.7961 9.41159 79.6263 9.88679 79.2866 10.2596C78.9305 10.6428 78.4595 10.834 77.8696 10.834C77.3026 10.834 76.8505 10.6508 76.5124 10.2828C76.176 9.91559 76.0078 9.45239 76.0078 8.89399C76.0078 8.30999 76.1809 7.83079 76.5288 7.45879C76.8767 7.08679 77.3444 6.90039 77.9344 6.90039C78.5013 6.90039 78.9584 7.08359 79.303 7.45079C79.6312 7.80759 79.7961 8.26839 79.7961 8.83159ZM78.905 8.85879C78.905 8.51079 78.8279 8.21239 78.6745 7.96359C78.4931 7.66279 78.2371 7.51239 77.9024 7.51239C77.5578 7.51239 77.2952 7.66279 77.1139 7.96359C76.9596 8.21239 76.8833 8.51559 76.8833 8.87399C76.8833 9.22199 76.9604 9.52039 77.1139 9.76919C77.3001 10.07 77.5594 10.2204 77.8942 10.2204C78.2224 10.2204 78.4808 10.0676 78.6663 9.76119C78.8246 9.50759 78.905 9.20679 78.905 8.85879Z" fill="#878BB1"/>
<path d="M84.4208 10.7488H83.5617V8.58884C83.5617 7.92324 83.3024 7.59044 82.7814 7.59044C82.5262 7.59044 82.3203 7.68164 82.1611 7.86484C82.0019 8.04804 81.9223 8.26404 81.9223 8.51124V10.748H81.0616V8.05524C81.0616 7.72404 81.0518 7.36484 81.0312 6.97604H81.7861L81.8263 7.56564H81.8501C81.951 7.38244 82.1004 7.23124 82.2957 7.11044C82.5295 6.96964 82.7896 6.89844 83.076 6.89844C83.4362 6.89844 83.7365 7.01204 83.9752 7.24004C84.2731 7.51924 84.4208 7.93604 84.4208 8.48964V10.7488Z" fill="#878BB1"/>
<path d="M90.2151 7.60529H89.2682V9.43729C89.2682 9.90289 89.4364 10.1357 89.7695 10.1357C89.9238 10.1357 90.0518 10.1229 90.1527 10.0965L90.1749 10.7325C90.005 10.7949 89.7818 10.8261 89.507 10.8261C89.1673 10.8261 88.9031 10.7253 88.7119 10.5237C88.5199 10.3221 88.4247 9.98289 88.4247 9.50689V7.60529H87.8594V6.97729H88.4247V6.28609L89.2674 6.03809V6.97649H90.2142V7.60529H90.2151Z" fill="#878BB1"/>
<path d="M94.7654 10.7487H93.9047V8.60467C93.9047 7.92867 93.6454 7.59027 93.1261 7.59027C92.7273 7.59027 92.4549 7.78627 92.3055 8.17827C92.2801 8.26067 92.2653 8.36147 92.2653 8.47987V10.7479H91.4062V5.24707H92.2653V7.51987H92.2817C92.5525 7.10627 92.9406 6.89987 93.4436 6.89987C93.7997 6.89987 94.0943 7.01347 94.3281 7.24147C94.6194 7.52547 94.7654 7.94787 94.7654 8.50627V10.7487Z" fill="#878BB1"/>
<path d="M99.4544 8.68475C99.4544 8.83515 99.4429 8.96155 99.4224 9.06475H96.8435C96.855 9.43755 96.9781 9.72156 97.2169 9.91836C97.4351 10.0944 97.7166 10.1824 98.0612 10.1824C98.4427 10.1824 98.7906 10.1232 99.104 10.004L99.2386 10.5864C98.8718 10.7416 98.4402 10.8192 97.9405 10.8192C97.3416 10.8192 96.8698 10.6472 96.5284 10.3032C96.1855 9.95916 96.0156 9.49756 96.0156 8.91836C96.0156 8.34956 96.174 7.87595 96.4932 7.49835C96.8263 7.09515 97.2768 6.89355 97.8454 6.89355C98.4017 6.89355 98.8242 7.09515 99.1098 7.49835C99.3403 7.81835 99.4544 8.21435 99.4544 8.68475ZM98.6339 8.46795C98.6404 8.21915 98.5838 8.00475 98.4673 7.82395C98.318 7.59115 98.0907 7.47435 97.783 7.47435C97.5024 7.47435 97.2735 7.58795 97.0987 7.81595C96.9559 7.99755 96.8714 8.21435 96.8435 8.46795H98.6339Z" fill="#878BB1"/>
</svg>
