<svg width="18" height="18" viewBox="0 0 18 18" fill="none" xmlns="http://www.w3.org/2000/svg">
<path d="M3.93736 15.375H14.0609C14.2033 15.3753 14.3404 15.4295 14.4444 15.5269C14.5484 15.6242 14.6115 15.7574 14.6212 15.8996C14.6308 16.0417 14.5861 16.1822 14.4962 16.2926C14.4062 16.4031 14.2777 16.4754 14.1366 16.4948L14.0609 16.5H3.93736C3.79383 16.5015 3.65517 16.448 3.54977 16.3506C3.44438 16.2531 3.38023 16.1191 3.37045 15.9759C3.36067 15.8327 3.40601 15.6911 3.49718 15.5803C3.58836 15.4694 3.71846 15.3976 3.86086 15.3795L3.93736 15.375ZM8.91211 1.50153L8.99986 1.49628C9.18356 1.4963 9.36087 1.56374 9.49814 1.68581C9.63542 1.80788 9.72312 1.97609 9.74461 2.15853L9.74986 2.24628V11.6888L12.2204 9.21903C12.3495 9.08989 12.5213 9.01232 12.7036 9.00086C12.8859 8.9894 13.0661 9.04484 13.2104 9.15678L13.2809 9.21978C13.41 9.34892 13.4876 9.52075 13.499 9.70302C13.5105 9.88529 13.4551 10.0655 13.3431 10.2098L13.2809 10.2803L9.53311 14.0273C9.40406 14.1565 9.23229 14.2342 9.05002 14.2458C8.86774 14.2574 8.6875 14.2021 8.54311 14.0903L8.47261 14.028L4.71961 10.2803C4.58367 10.1456 4.50434 9.9641 4.49785 9.77287C4.49136 9.58163 4.55821 9.39515 4.68471 9.25159C4.81121 9.10803 4.9878 9.01825 5.17833 9.00062C5.36886 8.983 5.55892 9.03886 5.70961 9.15678L5.78011 9.21903L8.24986 11.685V2.24628C8.24989 2.06258 8.31733 1.88527 8.4394 1.748C8.56147 1.61072 8.72967 1.52302 8.91211 1.50153Z" fill="#3A63F3"/>
</svg>
