<svg width="73" height="20" viewBox="0 0 73 20" fill="none" xmlns="http://www.w3.org/2000/svg">
<g clip-path="url(#clip0_5021_118)">
<path d="M6.39069 7.33686C8.61831 7.33686 10.8277 7.33686 13.0553 7.33686C12.6353 9.04762 12.6536 10.7231 13.0918 12.4339C12.9457 12.4339 12.8544 12.4339 12.7631 12.4339C10.7729 12.4339 8.76438 12.4339 6.77414 12.4339C6.40895 12.4339 6.39069 12.4339 6.39069 12.7866C6.39069 13.4039 6.40895 14.0212 6.39069 14.6208C6.39069 14.8677 6.46373 14.9206 6.7011 14.9206C9.07479 14.9206 11.4667 14.9206 13.8404 14.9206C14.023 14.9206 14.1508 14.9559 14.2604 15.1146C15.6846 17.4427 17.7661 18.9947 20.3589 19.9471C20.3772 19.9471 20.3772 19.9647 20.432 20C20.2859 20 20.1763 20 20.0485 20C13.4935 20 6.93847 20 0.401701 20C0 20 0 20 0 19.6296C0 13.2099 0 6.79012 0 0.37037C0 0.123457 0.0547774 0.0352734 0.346923 0.0352734C6.97499 0.0352734 13.603 0.0352734 20.1581 0.0352734C19.4825 0.352734 18.7521 0.670194 18.04 1.0582C16.3602 1.99295 15.0273 3.28042 14.0595 4.92064C13.95 5.097 13.8222 5.13228 13.6213 5.13228C11.3389 5.13228 9.07479 5.13228 6.79239 5.13228C6.37243 5.13228 6.37243 5.13228 6.37243 5.52028C6.39069 6.11993 6.39069 6.70194 6.39069 7.33686ZM40.2796 0.0352734C35.6783 0.0352734 31.077 0.0352734 26.4757 0.0352734C25.5628 0.0352734 24.6498 0.10582 23.7551 0.194004C22.2031 0.352734 20.7058 0.776014 19.2999 1.42857C15.4837 3.24515 13.0918 6.96649 13.8404 11.358C14.2604 13.8272 15.5385 15.8377 17.5653 17.3898C19.8842 19.1711 22.6048 19.8765 25.5263 20C26.5305 20.0353 27.5348 20 28.5573 20.0176C28.7946 20.0176 28.8859 19.9471 28.8859 19.7178C28.8677 18.2187 28.8677 16.7196 28.8859 15.2205C28.8859 14.9912 28.8129 14.9206 28.5755 14.9206C27.4617 14.9206 26.3479 14.9206 25.2524 14.8677C24.3212 14.8325 23.4447 14.5679 22.6231 14.127C20.7241 13.1041 19.7929 11.3051 20.1763 9.25926C20.4867 7.61905 21.5458 6.4903 23.0795 5.78483C24.1568 5.29101 25.3071 5.14991 26.4757 5.14991C29.7624 5.14991 33.049 5.14991 36.3357 5.14991C36.5548 5.14991 36.7191 5.097 36.8469 4.92064C37.7599 3.77425 38.6728 2.62787 39.5858 1.48148C39.951 1.02293 40.3161 0.564374 40.7178 0.0529101C40.4987 0.0352734 40.3892 0.0352734 40.2796 0.0352734ZM30.0728 20.0529C34.7654 20.0529 39.4397 20.0529 44.1323 20.0529C45.8852 20.0529 47.6015 19.7531 49.2449 19.1358C52.3672 17.9365 54.6313 15.9083 55.7634 12.7866C55.8364 12.575 55.9642 12.5926 56.1285 12.5926C59.543 12.5926 62.9392 12.5926 66.3537 12.5926C66.445 12.5926 66.5545 12.6102 66.6823 12.6102C66.6823 15.1146 66.6823 17.5661 66.6823 20.0529C68.8186 20.0529 70.9184 20.0529 73.0365 20.0529C73.0365 13.3862 73.0365 6.73721 73.0365 0.0881834C70.9002 0.0881834 68.8004 0.0881834 66.6641 0.0881834C66.6641 2.53968 66.6641 4.97355 66.6641 7.40741C66.591 7.40741 66.5545 7.42504 66.4997 7.42504C63.0488 7.42504 59.5978 7.42504 56.1468 7.42504C56.0007 7.42504 55.946 7.37213 55.8912 7.23104C55.6721 6.6843 55.4895 6.11993 55.1973 5.60847C53.6636 2.94533 51.2716 1.37566 48.2771 0.599647C46.2686 0.0705468 44.1871 0.0352734 42.1238 0C42.0142 0 41.8864 0.0881834 41.8134 0.176367C40.5353 1.78131 39.2754 3.38624 37.9972 4.97355C37.9425 5.02646 37.9059 5.097 37.8512 5.20282C37.9972 5.20282 38.1068 5.20282 38.1981 5.20282C40.2066 5.20282 42.2151 5.18519 44.2236 5.22046C45.447 5.2381 46.6155 5.57319 47.6563 6.22575C49.4274 7.3545 50.2674 9.32981 49.7379 11.2346C49.2996 12.8219 48.1676 13.8095 46.6338 14.4092C45.6296 14.7972 44.5705 14.8854 43.5115 14.8854C41.1926 14.903 38.8737 14.8854 36.573 14.903C36.2991 14.903 36.2444 14.8148 36.2444 14.5679C36.2626 12.3457 36.2444 10.1058 36.2444 7.8836C36.2444 7.77778 36.2444 7.67196 36.2444 7.56614C34.0898 7.56614 31.9717 7.56614 29.8354 7.56614C29.8354 11.7108 29.8354 15.8554 29.8354 20.0176C29.9084 20.0353 29.9815 20.0529 30.0728 20.0529ZM56.2929 20.0353C56.2929 17.9718 56.2929 15.9436 56.2929 13.8448C56.2198 13.9683 56.1833 14.0564 56.1468 14.127C55.6721 15.097 55.0513 15.9965 54.3209 16.7901C53.1341 18.06 51.7464 19.0123 50.1396 19.7002C49.9935 19.7707 49.8292 19.806 49.9204 20.0353C52.0385 20.0353 54.1566 20.0353 56.2929 20.0353ZM49.8474 0.15873C51.2351 0.687831 52.495 1.41093 53.6271 2.36332C54.7591 3.3157 55.6356 4.46208 56.2929 5.78483C56.2929 3.88007 56.2929 1.97531 56.2929 0.0529101C54.1566 0.0529101 52.0385 0.0529101 49.9022 0.0529101C49.8839 0.0881834 49.8657 0.123457 49.8474 0.15873Z" fill="url(#paint0_linear_5021_118)"/>
</g>
<defs>
<linearGradient id="paint0_linear_5021_118" x1="0" y1="10.0242" x2="72.9915" y2="10.0242" gradientUnits="userSpaceOnUse">
<stop stop-color="#655FFF"/>
<stop offset="1" stop-color="#3597FE"/>
</linearGradient>
<clipPath id="clip0_5021_118">
<rect width="73" height="20" fill="white"/>
</clipPath>
</defs>
</svg>
