<svg width="32" height="32" viewBox="0 0 32 32" fill="none" xmlns="http://www.w3.org/2000/svg">
<rect width="32" height="32" rx="4" fill="#878BB1"/>
<g clip-path="url(#clip0_5380_360)">
<path d="M14.0867 17.0312C14.0273 17.0312 12.7055 17.0312 12.1055 17.0312C11.7836 17.0312 11.6836 16.9125 11.6836 16.6094C11.6836 15.8094 11.6836 14.9875 11.6836 14.1875C11.6836 13.8656 11.8023 13.7656 12.1055 13.7656H14.0867C14.0867 13.7063 14.0867 12.5438 14.0867 12.0031C14.0867 11.2031 14.2273 10.4406 14.6273 9.74063C15.0492 9.01875 15.6492 8.54062 16.4086 8.25938C16.9086 8.07812 17.4086 8 17.9492 8H19.9117C20.193 8 20.3117 8.11875 20.3117 8.4V10.6844C20.3117 10.9656 20.193 11.0844 19.9117 11.0844C19.3711 11.0844 18.8305 11.0844 18.2898 11.1031C17.7492 11.1031 17.468 11.3625 17.468 11.925C17.4492 12.525 17.468 13.1063 17.468 13.7281H19.7898C20.1117 13.7281 20.2305 13.8469 20.2305 14.1687V16.5906C20.2305 16.9125 20.1305 17.0125 19.7898 17.0125C19.068 17.0125 17.5273 17.0125 17.468 17.0125V23.5406C17.468 23.8812 17.368 24 17.0086 24C16.168 24 15.3461 24 14.5055 24C14.2055 24 14.0836 23.8813 14.0836 23.5781C14.0867 21.4781 14.0867 17.0906 14.0867 17.0312Z" fill="white"/>
</g>
<defs>
<clipPath id="clip0_5380_360">
<rect width="16" height="16" fill="white" transform="translate(8 8)"/>
</clipPath>
</defs>
</svg>
