<svg width="111" height="32" viewBox="0 0 111 32" fill="none" xmlns="http://www.w3.org/2000/svg">
<path d="M106.889 0.641003C108.792 0.641003 110.341 2.148 110.341 4V28C110.341 29.852 108.792 31.359 106.889 31.359H4.11111C2.20767 31.359 0.658805 29.852 0.658805 28V4C0.658805 2.148 2.20767 0.641003 4.11111 0.641003H106.889ZM106.889 4.05326e-06H4.11111C1.85103 4.05326e-06 0 1.801 0 4V28C0 30.199 1.85103 32 4.11111 32H106.889C109.149 32 111 30.199 111 28V4C111 1.801 109.149 4.05326e-06 106.889 4.05326e-06Z" fill="#878BB1"/>
<path d="M38.8524 8.19519C38.8524 8.86319 38.6475 9.39819 38.244 9.79719C37.78 10.2702 37.1757 10.5082 36.4352 10.5082C35.7275 10.5082 35.1232 10.2662 34.6274 9.78919C34.1307 9.30519 33.8828 8.71119 33.8828 8.00019C33.8828 7.28919 34.1307 6.69519 34.6274 6.21519C35.1232 5.73419 35.7275 5.49219 36.4352 5.49219C36.7875 5.49219 37.1235 5.56319 37.4441 5.69519C37.7636 5.82819 38.0238 6.00819 38.2122 6.23019L37.7841 6.65219C37.4553 6.27319 37.0077 6.08619 36.4352 6.08619C35.919 6.08619 35.4714 6.26219 35.0914 6.61719C34.7155 6.97319 34.5271 7.43419 34.5271 8.00019C34.5271 8.56619 34.7155 9.03119 35.0914 9.38719C35.4714 9.73819 35.919 9.91819 36.4352 9.91819C36.9832 9.91819 37.4441 9.73819 37.8077 9.38319C38.0473 9.14819 38.1836 8.82419 38.2194 8.41019H36.4352V7.83219H38.8155C38.8442 7.95719 38.8524 8.07819 38.8524 8.19519Z" fill="#878BB1" stroke="#878BB1" stroke-width="0.16" stroke-miterlimit="10"/>
<path d="M42.6267 6.19178H40.3908V7.71178H42.4065V8.28978H40.3908V9.80978H42.6267V10.3988H39.7578V5.60278H42.6267V6.19178Z" fill="#878BB1" stroke="#878BB1" stroke-width="0.16" stroke-miterlimit="10"/>
<path d="M45.2935 10.3995H44.6605V6.19252H43.2891V5.60352H46.666V6.19252H45.2935V10.3995Z" fill="#878BB1" stroke="#878BB1" stroke-width="0.16" stroke-miterlimit="10"/>
<path d="M49.1094 10.3995V5.60352H49.7413V10.3995H49.1094Z" fill="#878BB1" stroke="#878BB1" stroke-width="0.16" stroke-miterlimit="10"/>
<path d="M52.5513 10.3995H51.9234V6.19252H50.5469V5.60352H53.9279V6.19252H52.5513V10.3995Z" fill="#878BB1" stroke="#878BB1" stroke-width="0.16" stroke-miterlimit="10"/>
<path d="M60.3138 9.78119C59.8293 10.2662 59.2291 10.5082 58.5132 10.5082C57.7932 10.5082 57.193 10.2662 56.7085 9.78119C56.2251 9.29719 55.9844 8.70319 55.9844 8.00019C55.9844 7.29719 56.2251 6.70319 56.7085 6.21919C57.193 5.73419 57.7932 5.49219 58.5132 5.49219C59.225 5.49219 59.8252 5.73419 60.3097 6.22319C60.7972 6.71119 61.0379 7.30119 61.0379 8.00019C61.0379 8.70319 60.7972 9.29719 60.3138 9.78119ZM57.1766 9.37919C57.5412 9.73819 57.9847 9.91819 58.5132 9.91819C59.0376 9.91819 59.4852 9.73819 59.8457 9.37919C60.2093 9.02019 60.3937 8.55919 60.3937 8.00019C60.3937 7.44119 60.2093 6.98019 59.8457 6.62119C59.4852 6.26219 59.0376 6.08219 58.5132 6.08219C57.9847 6.08219 57.5412 6.26219 57.1766 6.62119C56.813 6.98019 56.6286 7.44119 56.6286 8.00019C56.6286 8.55919 56.813 9.02019 57.1766 9.37919Z" fill="#878BB1" stroke="#878BB1" stroke-width="0.16" stroke-miterlimit="10"/>
<path d="M61.9219 10.3995V5.60352H62.69L65.0786 9.33352H65.1062L65.0786 8.41152V5.60352H65.7105V10.3995H65.0509L62.5497 6.48552H62.5221L62.5497 7.41152V10.3995H61.9219Z" fill="#878BB1" stroke="#878BB1" stroke-width="0.16" stroke-miterlimit="10"/>
<path d="M55.834 17.4027C53.9095 17.4027 52.3373 18.8327 52.3373 20.8057C52.3373 22.7627 53.9095 24.2077 55.834 24.2077C57.7627 24.2077 59.3349 22.7627 59.3349 20.8057C59.3349 18.8327 57.7627 17.4027 55.834 17.4027ZM55.834 22.8677C54.7781 22.8677 53.8696 22.0167 53.8696 20.8057C53.8696 19.5787 54.7781 18.7427 55.834 18.7427C56.89 18.7427 57.8026 19.5787 57.8026 20.8057C57.8026 22.0167 56.89 22.8677 55.834 22.8677ZM48.2045 17.4027C46.2759 17.4027 44.7078 18.8327 44.7078 20.8057C44.7078 22.7627 46.2759 24.2077 48.2045 24.2077C50.1322 24.2077 51.7013 22.7627 51.7013 20.8057C51.7013 18.8327 50.1322 17.4027 48.2045 17.4027ZM48.2045 22.8677C47.1475 22.8677 46.236 22.0167 46.236 20.8057C46.236 19.5787 47.1475 18.7427 48.2045 18.7427C49.2605 18.7427 50.169 19.5787 50.169 20.8057C50.169 22.0167 49.2605 22.8677 48.2045 22.8677ZM39.1258 18.4457V19.8917H42.6624C42.559 20.6997 42.2824 21.2937 41.8584 21.7077C41.3422 22.2077 40.5382 22.7627 39.1258 22.7627C36.9493 22.7627 35.245 21.0477 35.245 18.9227C35.245 16.7977 36.9493 15.0827 39.1258 15.0827C40.3026 15.0827 41.1589 15.5317 41.7908 16.1137L42.8345 15.0947C41.9506 14.2707 40.7748 13.6377 39.1258 13.6377C36.1412 13.6377 33.6328 16.0087 33.6328 18.9227C33.6328 21.8367 36.1412 24.2077 39.1258 24.2077C40.7389 24.2077 41.9506 23.6917 42.9031 22.7237C43.8792 21.7707 44.1834 20.4307 44.1834 19.3487C44.1834 19.0127 44.1547 18.7037 44.1035 18.4457H39.1258ZM76.2501 19.5667C75.9622 18.8057 75.0742 17.4027 73.2654 17.4027C71.473 17.4027 69.9807 18.7817 69.9807 20.8057C69.9807 22.7117 71.4577 24.2077 73.4375 24.2077C75.0384 24.2077 75.9622 23.2547 76.3422 22.6997L75.1541 21.9267C74.7578 22.4927 74.218 22.8677 73.4375 22.8677C72.6622 22.8677 72.106 22.5207 71.7496 21.8367L76.4109 19.9537L76.2501 19.5667ZM71.4976 20.6997C71.4577 19.3877 72.5413 18.7157 73.3177 18.7157C73.9261 18.7157 74.4423 19.0127 74.6144 19.4377L71.4976 20.6997ZM67.709 24.0007H69.2412V14.0007H67.709V24.0007ZM65.1996 18.1607H65.1484C64.8043 17.7627 64.1477 17.4027 63.3161 17.4027C61.5708 17.4027 59.975 18.8987 59.975 20.8167C59.975 22.7237 61.5708 24.2077 63.3161 24.2077C64.1477 24.2077 64.8043 23.8447 65.1484 23.4347H65.1996V23.9227C65.1996 25.2237 64.4878 25.9227 63.3396 25.9227C62.4035 25.9227 61.8227 25.2627 61.5831 24.7077L60.2505 25.2507C60.6346 26.1527 61.6517 27.2627 63.3396 27.2627C65.1361 27.2627 66.652 26.2307 66.652 23.7197V17.6097H65.1996V18.1607ZM63.4472 22.8677C62.3912 22.8677 61.5073 22.0047 61.5073 20.8167C61.5073 19.6177 62.3912 18.7427 63.4472 18.7427C64.4878 18.7427 65.3082 19.6177 65.3082 20.8167C65.3082 22.0047 64.4878 22.8677 63.4472 22.8677ZM83.4238 14.0007H79.7591V24.0007H81.2872V20.2117H83.4238C85.1209 20.2117 86.7853 19.0127 86.7853 17.1057C86.7853 15.1997 85.1168 14.0007 83.4238 14.0007ZM83.4637 18.8207H81.2872V15.3917H83.4637C84.6047 15.3917 85.2561 16.3167 85.2561 17.1057C85.2561 17.8797 84.6047 18.8207 83.4637 18.8207ZM92.9102 17.3837C91.8061 17.3837 90.6579 17.8597 90.1857 18.9147L91.5418 19.4697C91.8337 18.9147 92.3704 18.7347 92.9379 18.7347C93.7306 18.7347 94.5346 19.1997 94.5469 20.0207V20.1257C94.2704 19.9697 93.6784 19.7387 92.9501 19.7387C91.4896 19.7387 90.0014 20.5237 90.0014 21.9887C90.0014 23.3287 91.1977 24.1917 92.5425 24.1917C93.5708 24.1917 94.1383 23.7387 94.4947 23.2117H94.5469V23.9847H96.0228V20.1487C96.0228 18.3757 94.6668 17.3837 92.9102 17.3837ZM92.7258 22.8637C92.226 22.8637 91.5295 22.6217 91.5295 22.0167C91.5295 21.2427 92.3981 20.9457 93.1499 20.9457C93.8228 20.9457 94.1383 21.0907 94.5469 21.2817C94.4271 22.2077 93.6108 22.8637 92.7258 22.8637ZM101.4 17.6027L99.6435 21.9377H99.5913L97.7753 17.6027H96.1273L98.8559 23.6607L97.299 27.0317H98.8958L103.1 17.6027H101.4ZM87.6252 24.0007H89.1574V14.0007H87.6252V24.0007Z" fill="#878BB1"/>
<path d="M8.54405 6.03036C8.30336 6.27636 8.16406 6.65936 8.16406 7.15536V24.8474C8.16406 25.3434 8.30336 25.7264 8.54405 25.9724L8.60346 26.0264L18.7577 16.1164V15.8824L8.60346 5.97236L8.54405 6.03036Z" fill="url(#paint0_linear_5380_406)"/>
<path d="M22.1388 19.4229L18.7578 16.1179V15.8838L22.1429 12.5788L22.2187 12.6219L26.2275 14.8488C27.3716 15.4808 27.3716 16.5209 26.2275 17.1569L22.2187 19.3799L22.1388 19.4229Z" fill="url(#paint1_linear_5380_406)"/>
<path d="M22.2214 19.378L18.7605 15.999L8.54688 25.972C8.92686 26.362 9.54652 26.409 10.2512 26.019L22.2214 19.378Z" fill="url(#paint2_linear_5380_406)"/>
<path d="M22.2214 12.622L10.2512 5.98098C9.54652 5.59498 8.92686 5.64197 8.54688 6.03197L18.7605 16.001L22.2214 12.622Z" fill="url(#paint3_linear_5380_406)"/>
<defs>
<linearGradient id="paint0_linear_5380_406" x1="17.8561" y1="25.0316" x2="4.43403" y2="11.2843" gradientUnits="userSpaceOnUse">
<stop stop-color="#00A0FF"/>
<stop offset="0.0066" stop-color="#00A1FF"/>
<stop offset="0.2601" stop-color="#00BEFF"/>
<stop offset="0.5122" stop-color="#00D2FF"/>
<stop offset="0.7604" stop-color="#00DFFF"/>
<stop offset="1" stop-color="#00E3FF"/>
</linearGradient>
<linearGradient id="paint1_linear_5380_406" x1="27.7173" y1="15.9997" x2="7.89072" y2="15.9997" gradientUnits="userSpaceOnUse">
<stop stop-color="#FFE000"/>
<stop offset="0.4087" stop-color="#FFBD00"/>
<stop offset="0.7754" stop-color="#FFA500"/>
<stop offset="1" stop-color="#FF9C00"/>
</linearGradient>
<linearGradient id="paint2_linear_5380_406" x1="20.3395" y1="14.1621" x2="2.13804" y2="-4.48035" gradientUnits="userSpaceOnUse">
<stop stop-color="#FF3A44"/>
<stop offset="1" stop-color="#C31162"/>
</linearGradient>
<linearGradient id="paint3_linear_5380_406" x1="5.97589" y1="31.86" x2="14.1036" y2="23.5354" gradientUnits="userSpaceOnUse">
<stop stop-color="#32A071"/>
<stop offset="0.0685" stop-color="#2DA771"/>
<stop offset="0.4762" stop-color="#15CF74"/>
<stop offset="0.8009" stop-color="#06E775"/>
<stop offset="1" stop-color="#00F076"/>
</linearGradient>
</defs>
</svg>
