<svg width="32" height="32" viewBox="0 0 32 32" fill="none" xmlns="http://www.w3.org/2000/svg">
<rect width="32" height="32" rx="4" fill="#878BB1"/>
<path d="M24 24V18.1406C24 15.2617 23.3789 13.0625 20.0195 13.0625C18.3984 13.0625 17.3203 13.9414 16.8789 14.7812H16.8398V13.3203H13.6602V24H16.9805V18.6992C16.9805 17.3008 17.2422 15.9609 18.9609 15.9609C20.6602 15.9609 20.6797 17.5391 20.6797 18.7813V23.9805H24V24Z" fill="white"/>
<path d="M8.26367 13.3203H11.584V24H8.26367V13.3203Z" fill="white"/>
<path d="M9.92188 8C8.86328 8 8 8.85938 8 9.92188C8 10.9844 8.85938 11.8633 9.92188 11.8633C10.9844 11.8633 11.8438 10.9844 11.8438 9.92188C11.8438 8.85938 10.9805 8 9.92188 8Z" fill="white"/>
</svg>
