<svg width="136" height="24" viewBox="0 0 136 24" fill="none" xmlns="http://www.w3.org/2000/svg">
<g clip-path="url(#clip0_5380_236)">
<path d="M39.6992 19.237V4.94052H42.6961V11.001L48.2016 4.94052H51.6425L46.4701 10.7346L51.9089 19.237H48.7122L44.6053 12.6437L42.6961 14.7083V19.237H39.6992Z" fill="#001C50"/>
<path d="M56.3044 19.459C55.6385 19.459 55.02 19.3369 54.4508 19.0927C53.8815 18.8485 53.4217 18.4854 53.0744 18.0049C52.7272 17.5245 52.5527 16.9203 52.5527 16.1957C52.5527 15.1602 52.919 14.3309 53.6516 13.7093C54.3842 13.0877 55.4688 12.7769 56.9038 12.7769H60.0118V12.4883C60.0118 11.8366 59.831 11.3784 59.4679 11.112C59.1047 10.8456 58.3769 10.7124 57.2812 10.7124C56.0824 10.7124 54.9281 10.8979 53.8181 11.2674V9.15842C54.3065 8.96656 54.9027 8.8064 55.6052 8.68113C56.3076 8.55586 57.0735 8.49244 57.9028 8.49244C59.4869 8.49244 60.711 8.81433 61.5768 9.45812C62.4426 10.1019 62.8755 11.1342 62.8755 12.5549V19.237H60.2781L60.1228 18.2824C59.7089 18.6519 59.1983 18.9405 58.591 19.1482C57.9837 19.3559 57.2225 19.459 56.3044 19.459ZM57.1258 17.4832C57.7918 17.4832 58.369 17.3722 58.8574 17.1502C59.3458 16.9282 59.7311 16.6476 60.0118 16.3067V14.6417H56.9704C55.8018 14.6417 55.2167 15.1222 55.2167 16.0847C55.2167 17.0472 55.8525 17.4832 57.1258 17.4832ZM56.815 7.64886L58.591 3.49756H61.1883L59.2348 7.64886H56.815Z" fill="#001C50"/>
<path d="M65.0723 19.237V8.71443H67.8472L67.9804 9.8022C68.4545 9.50568 69.0428 9.23611 69.7453 8.99192C70.4477 8.74773 71.1406 8.58123 71.8209 8.49243V10.7568C71.4213 10.8154 70.9852 10.9042 70.5111 11.0232C70.037 11.1421 69.5867 11.2753 69.157 11.4228C68.7272 11.5702 68.3657 11.7256 68.0692 11.8889V19.237H65.0723Z" fill="#001C50"/>
<path d="M73.1328 19.237V4.27454H76.1297V12.5105L80.059 8.71443H83.4778L79.2377 13.0211L83.722 19.237H80.5474L77.3507 14.5973L76.1297 15.7739V19.237H73.1328Z" fill="#001C50"/>
<path d="M89.4702 19.459C87.6499 19.459 86.2069 19.0039 85.1413 18.0937C84.0758 17.1835 83.543 15.804 83.543 13.9535C83.543 12.2806 83.9901 10.9534 84.886 9.9687C85.7819 8.98399 87.1171 8.49243 88.893 8.49243C90.5215 8.49243 91.7679 8.91739 92.6337 9.7689C93.4994 10.6204 93.9323 11.7336 93.9323 13.1099V15.0191H86.3179C86.4812 15.8627 86.8697 16.4398 87.4834 16.7506C88.097 17.0614 88.9676 17.2168 90.0918 17.2168C90.6547 17.2168 91.2272 17.1645 91.8123 17.0614C92.3974 16.9584 92.8969 16.8252 93.3107 16.6618V18.793C92.8224 19.015 92.2531 19.1815 91.6014 19.2925C90.9497 19.4035 90.2393 19.459 89.4702 19.459ZM86.3179 13.1765H91.3128V12.5993C91.3128 11.992 91.1352 11.5147 90.78 11.1675C90.4248 10.8202 89.8254 10.6458 88.9818 10.6458C87.9908 10.6458 87.2979 10.8456 86.9062 11.2452C86.5145 11.6448 86.3179 12.2885 86.3179 13.1765Z" fill="#001C50"/>
<path d="M95.7969 19.237V8.71443H98.5718L98.705 9.8022C99.1791 9.50568 99.7674 9.23611 100.47 8.99192C101.172 8.74773 101.865 8.58123 102.546 8.49243V10.7568C102.146 10.8154 101.71 10.9042 101.236 11.0232C100.762 11.1421 100.311 11.2753 99.8816 11.4228C99.4518 11.5702 99.0903 11.7256 98.7938 11.8889V19.237H95.7969Z" fill="#001C50"/>
<path d="M108.894 19.459C107.074 19.459 105.631 19.0039 104.565 18.0937C103.5 17.1835 102.967 15.804 102.967 13.9535C102.967 12.2806 103.414 10.9534 104.31 9.9687C105.206 8.98399 106.541 8.49243 108.317 8.49243C109.945 8.49243 111.192 8.91739 112.057 9.7689C112.923 10.6204 113.356 11.7336 113.356 13.1099V15.0191H105.742C105.905 15.8627 106.294 16.4398 106.907 16.7506C107.521 17.0614 108.391 17.2168 109.516 17.2168C110.079 17.2168 110.651 17.1645 111.236 17.0614C111.821 16.9584 112.321 16.8252 112.735 16.6618V18.793C112.246 19.015 111.677 19.1815 111.025 19.2925C110.373 19.4035 109.663 19.459 108.894 19.459ZM105.742 13.1765H110.737V12.5993C110.737 11.992 110.559 11.5147 110.204 11.1675C109.849 10.8202 109.249 10.6458 108.406 10.6458C107.415 10.6458 106.722 10.8456 106.33 11.2452C105.938 11.6448 105.742 12.2885 105.742 13.1765Z" fill="#001C50"/>
<path d="M118.819 19.459C118.034 19.459 117.288 19.4035 116.577 19.2925C115.867 19.1815 115.297 19.0451 114.868 18.8818V16.3954C115.386 16.6032 115.97 16.7617 116.622 16.8727C117.273 16.9837 117.873 17.0392 118.42 17.0392C119.16 17.0392 119.682 16.9948 119.985 16.906C120.288 16.8172 120.44 16.6174 120.44 16.3066C120.44 15.9515 120.207 15.693 119.741 15.5297C119.274 15.3663 118.583 15.138 117.665 14.8415C116.702 14.5164 115.963 14.1232 115.445 13.6649C114.926 13.2066 114.668 12.5248 114.668 11.6226C114.668 10.6157 115.034 9.84343 115.767 9.30271C116.499 8.762 117.679 8.49243 119.308 8.49243C119.959 8.49243 120.573 8.54 121.15 8.63673C121.727 8.73345 122.216 8.84762 122.615 8.98082V11.445C122.216 11.2531 121.758 11.1088 121.239 11.0121C120.72 10.9153 120.24 10.8678 119.796 10.8678C119.16 10.8678 118.653 10.9122 118.275 11.001C117.898 11.0898 117.709 11.2816 117.709 11.5782C117.709 11.9032 117.912 12.1331 118.32 12.2663C118.727 12.3995 119.36 12.5993 120.218 12.8657C121.061 13.1178 121.719 13.3906 122.194 13.6871C122.668 13.9836 123.001 14.3341 123.193 14.7416C123.384 15.1491 123.481 15.6549 123.481 16.2622C123.481 18.3934 121.927 19.459 118.819 19.459Z" fill="#001C50"/>
<path d="M130.272 19.459C128.304 19.459 126.861 18.9817 125.943 18.0271C125.025 17.0725 124.566 15.7215 124.566 13.9757C124.566 12.2299 125.029 10.8789 125.954 9.9243C126.878 8.96972 128.318 8.49243 130.272 8.49243C132.225 8.49243 133.687 8.96972 134.612 9.9243C135.536 10.8789 135.999 12.2299 135.999 13.9757C135.999 15.7215 135.541 17.0725 134.623 18.0271C133.705 18.9817 132.255 19.459 130.272 19.459ZM126.387 7.67105L128.141 3.76395H130.804L128.762 7.67105H126.387ZM130.272 16.906C131.234 16.906 131.922 16.6872 132.336 16.2511C132.75 15.8151 132.958 15.0555 132.958 13.9757C132.958 12.8959 132.75 12.1363 132.336 11.7003C131.922 11.2642 131.234 11.0454 130.272 11.0454C129.309 11.0454 128.643 11.2642 128.229 11.7003C127.815 12.1363 127.608 12.8959 127.608 13.9757C127.608 15.0555 127.815 15.8151 128.229 16.2511C128.643 16.6872 129.325 16.906 130.272 16.906ZM131.448 7.67105L133.202 3.76395H135.866L133.824 7.67105H131.448Z" fill="#001C50"/>
<path d="M31.2811 9.94699L29.1727 8.89637C29.0351 8.83026 28.9351 8.71412 28.8761 8.53365L26.8499 3.01251C26.2549 1.21322 24.5825 0.00178678 22.6778 0.00178678H20.8213L18.9756 7.38475L15.1394 13.3597L15.9059 18.4789L13.4276 12.5182L15.3163 6.61644L12.897 0H10.7278C8.82847 0 7.15604 1.21144 6.57177 2.97856L4.52412 8.56045C4.47409 8.70876 4.37046 8.83026 4.23288 8.89637L2.12984 9.95235C0.814771 10.6081 0 11.9285 0 13.3919V21.5003C0 22.5795 0.775462 23.5086 1.83859 23.7123C3.93627 24.109 6.10899 24.0983 8.2299 23.6623C9.15902 23.4783 9.84693 22.7153 9.97379 21.7951C9.16974 21.4413 8.38892 21.0286 7.64205 20.5462C7.10601 20.1995 6.97915 19.4687 7.36152 18.9577C7.70816 18.4949 8.35319 18.3842 8.83919 18.6968C11.1834 20.2102 13.8815 21.0054 16.7046 21.0054C19.5277 21.0054 22.2257 20.2102 24.57 18.6968C25.056 18.3824 25.701 18.4949 26.0476 18.9577C26.43 19.4687 26.3032 20.1995 25.7671 20.5462C25.0202 21.0286 24.2376 21.4413 23.4336 21.7969C23.5694 22.6921 24.2501 23.439 25.156 23.6355C26.2781 23.8785 27.4395 23.9982 28.6188 23.9982C29.6087 23.9982 30.595 23.9107 31.5527 23.7391C32.6266 23.5462 33.4074 22.617 33.4074 21.52V13.3901C33.4074 11.9267 32.5926 10.6045 31.2829 9.94521L31.2811 9.94699Z" fill="#3A63F3"/>
</g>
<defs>
<clipPath id="clip0_5380_236">
<rect width="136" height="24" fill="white"/>
</clipPath>
</defs>
</svg>
